<mxfile host="app.diagrams.net" modified="2024-05-21T04:12:53.245Z" agent="Mozilla/5.0 (Windows NT 10.0; Win64; x64) AppleWebKit/537.36 (KHTML, like Gecko) Chrome/125.0.0.0 Safari/537.36 Edg/125.0.0.0" etag="PRf4qasqH_Pr0kDTlijU" version="24.4.4" type="github">
  <diagram name="Page-1" id="7a6c530e-6e37-e111-ec74-82921da8cc10">
    <mxGraphModel dx="876" dy="630" grid="1" gridSize="10" guides="1" tooltips="1" connect="1" arrows="1" fold="1" page="1" pageScale="1.5" pageWidth="1169" pageHeight="826" background="#ffffff" math="0" shadow="0">
      <root>
        <mxCell id="0" style=";html=1;" />
        <mxCell id="1" style=";html=1;" parent="0" />
        <mxCell id="5Qg_lqNBwz_7aEJv8X0_-2" value="" style="rounded=0;whiteSpace=wrap;html=1;fontFamily=Helvetica;fontSize=20;fontStyle=1;strokeWidth=2;" parent="1" vertex="1">
          <mxGeometry x="460" y="170" width="590" height="470" as="geometry" />
        </mxCell>
        <mxCell id="5Qg_lqNBwz_7aEJv8X0_-1" value="" style="rounded=0;whiteSpace=wrap;html=1;fontFamily=Helvetica;fontSize=20;fontStyle=1;strokeWidth=2;dashed=1;" parent="1" vertex="1">
          <mxGeometry x="480" y="210" width="260" height="400" as="geometry" />
        </mxCell>
        <mxCell id="5Qg_lqNBwz_7aEJv8X0_-4" value="&lt;font style=&quot;font-size: 20px;&quot;&gt;Compose&lt;/font&gt;" style="rounded=0;whiteSpace=wrap;html=1;fontFamily=Helvetica;fontSize=20;fontStyle=1;strokeWidth=2;" parent="1" vertex="1">
          <mxGeometry x="520" y="280" width="160" height="100" as="geometry" />
        </mxCell>
        <mxCell id="5Qg_lqNBwz_7aEJv8X0_-5" value="" style="rounded=0;whiteSpace=wrap;html=1;fontFamily=Helvetica;fontSize=20;fontStyle=1;strokeWidth=2;dashed=1;" parent="1" vertex="1">
          <mxGeometry x="760" y="210" width="260" height="400" as="geometry" />
        </mxCell>
        <mxCell id="5Qg_lqNBwz_7aEJv8X0_-6" value="&lt;font style=&quot;font-size: 20px;&quot;&gt;UI&lt;/font&gt;" style="text;html=1;align=center;verticalAlign=middle;whiteSpace=wrap;rounded=0;fontFamily=Helvetica;fontSize=20;fontStyle=1;strokeWidth=2;" parent="1" vertex="1">
          <mxGeometry x="570" y="220" width="60" height="30" as="geometry" />
        </mxCell>
        <mxCell id="5Qg_lqNBwz_7aEJv8X0_-7" value="Data" style="text;html=1;align=center;verticalAlign=middle;whiteSpace=wrap;rounded=0;fontFamily=Helvetica;fontSize=20;fontStyle=1;strokeWidth=2;" parent="1" vertex="1">
          <mxGeometry x="860" y="220" width="60" height="30" as="geometry" />
        </mxCell>
        <mxCell id="5Qg_lqNBwz_7aEJv8X0_-16" style="edgeStyle=orthogonalEdgeStyle;rounded=0;orthogonalLoop=1;jettySize=auto;html=1;strokeWidth=2;fontStyle=1;fontFamily=Helvetica;fontSize=20;" parent="1" edge="1">
          <mxGeometry relative="1" as="geometry">
            <mxPoint x="590" y="380" as="sourcePoint" />
            <mxPoint x="590" y="460" as="targetPoint" />
          </mxGeometry>
        </mxCell>
        <mxCell id="5Qg_lqNBwz_7aEJv8X0_-8" value="&lt;font style=&quot;font-size: 20px;&quot;&gt;ViewModel&lt;/font&gt;" style="rounded=0;whiteSpace=wrap;html=1;fontFamily=Helvetica;fontSize=20;fontStyle=1;strokeWidth=2;" parent="1" vertex="1">
          <mxGeometry x="520" y="460" width="160" height="100" as="geometry" />
        </mxCell>
        <mxCell id="5Qg_lqNBwz_7aEJv8X0_-9" value="&lt;font style=&quot;font-size: 20px;&quot;&gt;ApiService&lt;/font&gt;" style="rounded=0;whiteSpace=wrap;html=1;fontFamily=Helvetica;fontSize=20;fontStyle=1;strokeWidth=2;" parent="1" vertex="1">
          <mxGeometry x="810" y="280" width="160" height="100" as="geometry" />
        </mxCell>
        <mxCell id="5Qg_lqNBwz_7aEJv8X0_-24" style="edgeStyle=orthogonalEdgeStyle;rounded=0;orthogonalLoop=1;jettySize=auto;html=1;strokeWidth=2;endArrow=none;endFill=0;fontStyle=1;fontFamily=Helvetica;fontSize=20;" parent="1" source="5Qg_lqNBwz_7aEJv8X0_-10" edge="1">
          <mxGeometry relative="1" as="geometry">
            <mxPoint x="740" y="500" as="targetPoint" />
            <Array as="points">
              <mxPoint x="790" y="500" />
              <mxPoint x="790" y="500" />
            </Array>
          </mxGeometry>
        </mxCell>
        <mxCell id="5Qg_lqNBwz_7aEJv8X0_-10" value="&lt;span style=&quot;font-size: 20px;&quot;&gt;DataStore&lt;/span&gt;" style="rounded=0;whiteSpace=wrap;html=1;fontFamily=Helvetica;fontSize=20;fontStyle=1;strokeWidth=2;" parent="1" vertex="1">
          <mxGeometry x="810" y="460" width="160" height="100" as="geometry" />
        </mxCell>
        <mxCell id="5Qg_lqNBwz_7aEJv8X0_-13" value="&lt;font style=&quot;font-size: 20px;&quot;&gt;Android&lt;/font&gt;" style="text;html=1;align=center;verticalAlign=middle;whiteSpace=wrap;rounded=0;fontFamily=Helvetica;fontSize=20;fontStyle=1;strokeWidth=2;" parent="1" vertex="1">
          <mxGeometry x="720" y="170" width="60" height="30" as="geometry" />
        </mxCell>
        <mxCell id="5Qg_lqNBwz_7aEJv8X0_-20" style="edgeStyle=orthogonalEdgeStyle;rounded=0;orthogonalLoop=1;jettySize=auto;html=1;entryX=1.004;entryY=0.607;entryDx=0;entryDy=0;fontFamily=Helvetica;fontSize=20;fontStyle=1;strokeWidth=2;entryPerimeter=0;exitX=1.004;exitY=0.607;exitDx=0;exitDy=0;exitPerimeter=0;" parent="1" edge="1">
          <mxGeometry relative="1" as="geometry">
            <mxPoint x="680.6400000000001" y="519.6999999999999" as="sourcePoint" />
            <mxPoint x="810" y="339" as="targetPoint" />
            <Array as="points">
              <mxPoint x="760" y="520" />
              <mxPoint x="760" y="339" />
            </Array>
          </mxGeometry>
        </mxCell>
        <mxCell id="5Qg_lqNBwz_7aEJv8X0_-21" style="edgeStyle=orthogonalEdgeStyle;rounded=0;orthogonalLoop=1;jettySize=auto;html=1;fontFamily=Helvetica;fontSize=20;fontStyle=1;strokeWidth=2;exitX=0.003;exitY=0.389;exitDx=0;exitDy=0;exitPerimeter=0;" parent="1" source="5Qg_lqNBwz_7aEJv8X0_-9" edge="1">
          <mxGeometry relative="1" as="geometry">
            <mxPoint x="800" y="320" as="sourcePoint" />
            <mxPoint x="680" y="500" as="targetPoint" />
            <Array as="points">
              <mxPoint x="810" y="320" />
              <mxPoint x="740" y="320" />
              <mxPoint x="740" y="500" />
            </Array>
          </mxGeometry>
        </mxCell>
        <mxCell id="5Qg_lqNBwz_7aEJv8X0_-25" style="edgeStyle=orthogonalEdgeStyle;rounded=0;orthogonalLoop=1;jettySize=auto;html=1;strokeWidth=2;fontStyle=1;fontFamily=Helvetica;fontSize=20;" parent="1" edge="1">
          <mxGeometry relative="1" as="geometry">
            <mxPoint x="810" y="520" as="targetPoint" />
            <mxPoint x="760" y="520" as="sourcePoint" />
            <Array as="points">
              <mxPoint x="770" y="520" />
              <mxPoint x="770" y="520" />
            </Array>
          </mxGeometry>
        </mxCell>
        <mxCell id="5Qg_lqNBwz_7aEJv8X0_-27" value="&lt;span style=&quot;white-space: pre; font-size: 20px;&quot;&gt;&#x9;&lt;/span&gt;" style="rounded=0;whiteSpace=wrap;html=1;fontFamily=Helvetica;fontSize=20;fontStyle=1;strokeWidth=2;gradientColor=none;" parent="1" vertex="1">
          <mxGeometry x="1080" y="170" width="460" height="470" as="geometry" />
        </mxCell>
        <mxCell id="5Qg_lqNBwz_7aEJv8X0_-28" value="&lt;font style=&quot;font-size: 20px;&quot;&gt;&lt;span style=&quot;font-size: 20px;&quot;&gt;Server&lt;/span&gt;&lt;/font&gt;" style="text;html=1;align=center;verticalAlign=middle;whiteSpace=wrap;rounded=0;fontFamily=Helvetica;fontSize=20;fontStyle=1;strokeWidth=2;" parent="1" vertex="1">
          <mxGeometry x="1280" y="170" width="60" height="30" as="geometry" />
        </mxCell>
        <mxCell id="5Qg_lqNBwz_7aEJv8X0_-31" style="edgeStyle=orthogonalEdgeStyle;rounded=0;orthogonalLoop=1;jettySize=auto;html=1;exitX=0.998;exitY=0.401;exitDx=0;exitDy=0;exitPerimeter=0;strokeWidth=2;fontStyle=1;fontFamily=Helvetica;fontSize=20;" parent="1" edge="1" target="5O3LQjxGlkiqxKychB-R-2">
          <mxGeometry relative="1" as="geometry">
            <mxPoint x="970.0000000000001" y="320.1" as="sourcePoint" />
            <mxPoint x="1080.32" y="320.0869565217391" as="targetPoint" />
            <Array as="points">
              <mxPoint x="1110" y="320" />
              <mxPoint x="1110" y="320" />
            </Array>
          </mxGeometry>
        </mxCell>
        <mxCell id="5Qg_lqNBwz_7aEJv8X0_-32" style="edgeStyle=orthogonalEdgeStyle;rounded=0;orthogonalLoop=1;jettySize=auto;html=1;exitX=0.005;exitY=0.605;exitDx=0;exitDy=0;exitPerimeter=0;strokeWidth=2;fontStyle=1;fontFamily=Helvetica;fontSize=20;" parent="1" edge="1" source="5O3LQjxGlkiqxKychB-R-2">
          <mxGeometry relative="1" as="geometry">
            <mxPoint x="1080" y="339.99695652173915" as="sourcePoint" />
            <mxPoint x="969.6800000000001" y="340.01000000000005" as="targetPoint" />
            <Array as="points">
              <mxPoint x="1161" y="339" />
              <mxPoint x="990" y="339" />
            </Array>
          </mxGeometry>
        </mxCell>
        <mxCell id="5Qg_lqNBwz_7aEJv8X0_-34" style="edgeStyle=orthogonalEdgeStyle;rounded=0;orthogonalLoop=1;jettySize=auto;html=1;strokeWidth=2;fontStyle=1;fontFamily=Helvetica;fontSize=20;" parent="1" edge="1">
          <mxGeometry relative="1" as="geometry">
            <mxPoint x="609.71" y="460" as="sourcePoint" />
            <mxPoint x="609.71" y="380" as="targetPoint" />
          </mxGeometry>
        </mxCell>
        <mxCell id="5O3LQjxGlkiqxKychB-R-4" style="edgeStyle=orthogonalEdgeStyle;rounded=0;orthogonalLoop=1;jettySize=auto;html=1;strokeWidth=2;" edge="1" parent="1">
          <mxGeometry relative="1" as="geometry">
            <mxPoint x="1200" y="379.9999999999999" as="sourcePoint" />
            <mxPoint x="1200" y="424.9999999999999" as="targetPoint" />
          </mxGeometry>
        </mxCell>
        <mxCell id="5O3LQjxGlkiqxKychB-R-7" style="edgeStyle=orthogonalEdgeStyle;rounded=0;orthogonalLoop=1;jettySize=auto;html=1;strokeWidth=2;" edge="1" parent="1">
          <mxGeometry relative="1" as="geometry">
            <mxPoint x="1290" y="320" as="sourcePoint" />
            <mxPoint x="1330" y="320" as="targetPoint" />
          </mxGeometry>
        </mxCell>
        <mxCell id="5O3LQjxGlkiqxKychB-R-2" value="应用服务器&lt;br&gt;&lt;div&gt;（提供API）&lt;/div&gt;" style="rounded=0;whiteSpace=wrap;html=1;fontFamily=Helvetica;fontSize=20;fontStyle=1;strokeWidth=2;" vertex="1" parent="1">
          <mxGeometry x="1130" y="280" width="160" height="100" as="geometry" />
        </mxCell>
        <mxCell id="5O3LQjxGlkiqxKychB-R-3" value="数据库" style="rounded=0;whiteSpace=wrap;html=1;fontFamily=Helvetica;fontSize=20;fontStyle=1;strokeWidth=2;" vertex="1" parent="1">
          <mxGeometry x="1130" y="425" width="160" height="100" as="geometry" />
        </mxCell>
        <mxCell id="5O3LQjxGlkiqxKychB-R-5" style="edgeStyle=orthogonalEdgeStyle;rounded=0;orthogonalLoop=1;jettySize=auto;html=1;strokeWidth=2;" edge="1" parent="1">
          <mxGeometry relative="1" as="geometry">
            <mxPoint x="1220" y="425" as="sourcePoint" />
            <mxPoint x="1220" y="380" as="targetPoint" />
          </mxGeometry>
        </mxCell>
        <mxCell id="5O3LQjxGlkiqxKychB-R-6" value="Model" style="rounded=0;whiteSpace=wrap;html=1;fontFamily=Helvetica;fontSize=20;fontStyle=1;strokeWidth=2;" vertex="1" parent="1">
          <mxGeometry x="1330" y="280" width="160" height="100" as="geometry" />
        </mxCell>
        <mxCell id="5O3LQjxGlkiqxKychB-R-8" style="edgeStyle=orthogonalEdgeStyle;rounded=0;orthogonalLoop=1;jettySize=auto;html=1;strokeWidth=2;" edge="1" parent="1">
          <mxGeometry relative="1" as="geometry">
            <mxPoint x="1330" y="339" as="sourcePoint" />
            <mxPoint x="1290" y="339" as="targetPoint" />
          </mxGeometry>
        </mxCell>
        <mxCell id="5O3LQjxGlkiqxKychB-R-11" value="&lt;span style=&quot;color: rgba(0, 0, 0, 0); font-size: 0px; text-align: start; text-wrap: nowrap;&quot;&gt;%3CmxGraphModel%3E%3Croot%3E%3CmxCell%20id%3D%220%22%2F%3E%3CmxCell%20id%3D%221%22%20parent%3D%220%22%2F%3E%3CmxCell%20id%3D%222%22%20value%3D%22%26lt%3Bfont%20style%3D%26quot%3Bfont-size%3A%2020px%3B%26quot%3B%26gt%3BAndroid%26lt%3B%2Ffont%26gt%3B%22%20style%3D%22text%3Bhtml%3D1%3Balign%3Dcenter%3BverticalAlign%3Dmiddle%3BwhiteSpace%3Dwrap%3Brounded%3D0%3BfontFamily%3DHelvetica%3BfontSize%3D20%3BfontStyle%3D1%3BstrokeWidth%3D2%3B%22%20vertex%3D%221%22%20parent%3D%221%22%3E%3CmxGeometry%20x%3D%22720%22%20y%3D%22170%22%20width%3D%2260%22%20height%3D%2230%22%20as%3D%22geometry%22%2F%3E%3C%2FmxCell%3E%3C%2Froot%3E%3C%2FmxGraphModel%3E&lt;/span&gt;" style="rounded=0;whiteSpace=wrap;html=1;fontFamily=宋体;fontSize=20;fontStyle=0;strokeWidth=2;dashed=1;" vertex="1" parent="1">
          <mxGeometry x="920" y="778" width="130" height="322" as="geometry" />
        </mxCell>
        <mxCell id="5O3LQjxGlkiqxKychB-R-26" value="&lt;span style=&quot;white-space: pre; font-size: 20px;&quot;&gt;&#x9;&lt;/span&gt;" style="rounded=0;whiteSpace=wrap;html=1;fontFamily=宋体;fontSize=20;fontStyle=0;strokeWidth=2;gradientColor=none;" vertex="1" parent="1">
          <mxGeometry x="1100" y="778" width="420" height="322" as="geometry" />
        </mxCell>
        <mxCell id="5O3LQjxGlkiqxKychB-R-27" value="&lt;font style=&quot;font-size: 20px;&quot;&gt;&lt;span style=&quot;font-size: 20px;&quot;&gt;Server&lt;/span&gt;&lt;/font&gt;" style="text;html=1;align=center;verticalAlign=middle;whiteSpace=wrap;rounded=0;fontFamily=Times New Roman;fontSize=20;fontStyle=0;strokeWidth=2;" vertex="1" parent="1">
          <mxGeometry x="1280" y="780" width="60" height="30" as="geometry" />
        </mxCell>
        <mxCell id="5O3LQjxGlkiqxKychB-R-28" style="edgeStyle=orthogonalEdgeStyle;rounded=0;orthogonalLoop=1;jettySize=auto;html=1;strokeWidth=2;fontStyle=0;fontFamily=宋体;fontSize=20;" edge="1" parent="1" target="5O3LQjxGlkiqxKychB-R-33">
          <mxGeometry relative="1" as="geometry">
            <mxPoint x="1050" y="860" as="sourcePoint" />
            <mxPoint x="1080.32" y="860.0869565217391" as="targetPoint" />
            <Array as="points">
              <mxPoint x="1110" y="860" />
              <mxPoint x="1110" y="860" />
            </Array>
          </mxGeometry>
        </mxCell>
        <mxCell id="5O3LQjxGlkiqxKychB-R-31" style="edgeStyle=orthogonalEdgeStyle;rounded=0;orthogonalLoop=1;jettySize=auto;html=1;strokeWidth=2;fontStyle=0;fontFamily=宋体;" edge="1" parent="1">
          <mxGeometry relative="1" as="geometry">
            <mxPoint x="1200" y="919.9999999999999" as="sourcePoint" />
            <mxPoint x="1200" y="964.9999999999999" as="targetPoint" />
          </mxGeometry>
        </mxCell>
        <mxCell id="5O3LQjxGlkiqxKychB-R-32" style="edgeStyle=orthogonalEdgeStyle;rounded=0;orthogonalLoop=1;jettySize=auto;html=1;strokeWidth=2;fontStyle=0;fontFamily=宋体;" edge="1" parent="1">
          <mxGeometry relative="1" as="geometry">
            <mxPoint x="1290" y="860" as="sourcePoint" />
            <mxPoint x="1330" y="860" as="targetPoint" />
          </mxGeometry>
        </mxCell>
        <mxCell id="5O3LQjxGlkiqxKychB-R-33" value="应用服务器&lt;br&gt;&lt;div&gt;（提供API）&lt;/div&gt;" style="rounded=0;whiteSpace=wrap;html=1;fontFamily=宋体;fontSize=20;fontStyle=0;strokeWidth=2;" vertex="1" parent="1">
          <mxGeometry x="1130" y="820" width="160" height="100" as="geometry" />
        </mxCell>
        <mxCell id="5O3LQjxGlkiqxKychB-R-34" value="数据库" style="rounded=0;whiteSpace=wrap;html=1;fontFamily=宋体;fontSize=20;fontStyle=0;strokeWidth=2;" vertex="1" parent="1">
          <mxGeometry x="1130" y="965" width="160" height="100" as="geometry" />
        </mxCell>
        <mxCell id="5O3LQjxGlkiqxKychB-R-35" style="edgeStyle=orthogonalEdgeStyle;rounded=0;orthogonalLoop=1;jettySize=auto;html=1;strokeWidth=2;fontStyle=0;fontFamily=宋体;" edge="1" parent="1">
          <mxGeometry relative="1" as="geometry">
            <mxPoint x="1220" y="965" as="sourcePoint" />
            <mxPoint x="1220" y="920" as="targetPoint" />
          </mxGeometry>
        </mxCell>
        <mxCell id="5O3LQjxGlkiqxKychB-R-36" value="深度学习模型" style="rounded=0;whiteSpace=wrap;html=1;fontFamily=宋体;fontSize=20;fontStyle=0;strokeWidth=2;" vertex="1" parent="1">
          <mxGeometry x="1330" y="820" width="160" height="100" as="geometry" />
        </mxCell>
        <mxCell id="5O3LQjxGlkiqxKychB-R-37" style="edgeStyle=orthogonalEdgeStyle;rounded=0;orthogonalLoop=1;jettySize=auto;html=1;strokeWidth=2;fontStyle=0;fontFamily=宋体;" edge="1" parent="1">
          <mxGeometry relative="1" as="geometry">
            <mxPoint x="1330" y="879" as="sourcePoint" />
            <mxPoint x="1290" y="879" as="targetPoint" />
          </mxGeometry>
        </mxCell>
        <mxCell id="5O3LQjxGlkiqxKychB-R-39" style="edgeStyle=orthogonalEdgeStyle;rounded=0;orthogonalLoop=1;jettySize=auto;html=1;strokeWidth=2;fontStyle=0;fontFamily=宋体;fontSize=20;" edge="1" parent="1">
          <mxGeometry relative="1" as="geometry">
            <mxPoint x="1130" y="882" as="sourcePoint" />
            <mxPoint x="1050" y="882" as="targetPoint" />
            <Array as="points">
              <mxPoint x="1110" y="882" />
              <mxPoint x="1110" y="882" />
            </Array>
          </mxGeometry>
        </mxCell>
        <mxCell id="5O3LQjxGlkiqxKychB-R-40" value="&lt;font style=&quot;font-size: 20px;&quot;&gt;Client&lt;/font&gt;" style="text;html=1;align=center;verticalAlign=middle;whiteSpace=wrap;rounded=0;fontFamily=Times New Roman;fontSize=20;fontStyle=0;strokeWidth=2;" vertex="1" parent="1">
          <mxGeometry x="960" y="780" width="60" height="30" as="geometry" />
        </mxCell>
      </root>
    </mxGraphModel>
  </diagram>
</mxfile>
